HIERARCHY
ROOT Hips
{
	OFFSET 0.000000 121.760803 0.000000
	CHANNELS 6 Xposition Yposition Zposition Xrotation Yrotation Zrotation 
	JOINT Spine
	{
		OFFSET 0.072000 7.257294 -0.789700
		CHANNELS 3 Xrotation Yrotation Zrotation
		JOINT Spine1
		{
			OFFSET 0.000000 12.508769 -0.658067
			CHANNELS 3 Xrotation Yrotation Zrotation
			JOINT Spine1_split
			{
				OFFSET 0.000000 12.508769 -0.658067
				CHANNELS 3 Xrotation Yrotation Zrotation
				JOINT Spine2
				{
					OFFSET 0.000000 12.508769 -0.658067
					CHANNELS 3 Xrotation Yrotation Zrotation
					JOINT Neck
					{
						OFFSET 0.000000 14.033295 7.520400
						CHANNELS 3 Xrotation Yrotation Zrotation
						JOINT Head
						{
							OFFSET 0.000000 8.198502 5.703100
							CHANNELS 3 Xrotation Yrotation Zrotation
							JOINT HeadTop_End
							{
								OFFSET 0.000000 17.760803 13.332701
								CHANNELS 3 Xrotation Yrotation Zrotation
								End Site
								{
									OFFSET 0.000000 0.000000 0.000000
								}
							}
						}
					}
					JOINT LeftShoulder
					{
						OFFSET 6.292450 5.785301 -0.669000
						CHANNELS 3 Xrotation Yrotation Zrotation
						JOINT LeftShoulder_split
						{
							OFFSET 6.292450 5.785301 -0.669000
							CHANNELS 3 Xrotation Yrotation Zrotation
							JOINT LeftArm
							{
								OFFSET 13.907140 -6.093903 1.965100
								CHANNELS 3 Xrotation Yrotation Zrotation
								JOINT LeftForeArm
								{
									OFFSET 34.140198 0.000000 0.000000
									CHANNELS 3 Xrotation Yrotation Zrotation
									JOINT LeftHand
									{
										OFFSET 40.960209 0.000000 0.000000
										CHANNELS 3 Xrotation Yrotation Zrotation
										JOINT LeftHandThumb1
										{
											OFFSET 10.006996 -7.170425 9.573125
											CHANNELS 3 Xrotation Yrotation Zrotation
											JOINT LeftHandThumb2
											{
												OFFSET 1.835007 -1.059448 1.059443
												CHANNELS 3 Xrotation Yrotation Zrotation
												JOINT LeftHandThumb3
												{
													OFFSET 2.112267 -1.219513 1.219518
													CHANNELS 3 Xrotation Yrotation Zrotation
													JOINT LeftHandThumb4
													{
														OFFSET 4.843811 -2.796570 2.796576
														CHANNELS 3 Xrotation Yrotation Zrotation
														End Site
														{
															OFFSET 0.000000 0.000000 0.000000
														}
													}
												}
											}
										}
										JOINT LeftHandIndex1
										{
											OFFSET 18.389847 -0.922348 4.596882
											CHANNELS 3 Xrotation Yrotation Zrotation
											JOINT LeftHandIndex2
											{
												OFFSET 4.711273 0.000000 0.000000
												CHANNELS 3 Xrotation Yrotation Zrotation
												JOINT LeftHandIndex3
												{
													OFFSET 2.886131 0.000000 0.000000
													CHANNELS 3 Xrotation Yrotation Zrotation
													JOINT LeftHandIndex4
													{
														OFFSET 6.145912 0.000000 0.000000
														CHANNELS 3 Xrotation Yrotation Zrotation
														End Site
														{
															OFFSET 0.000000 0.000000 0.000000
														}
													}
												}
											}
										}
										JOINT LeftHandMiddle1
										{
											OFFSET 18.013008 0.000000 0.000000
											CHANNELS 3 Xrotation Yrotation Zrotation
											JOINT LeftHandMiddle2
											{
												OFFSET 4.946693 0.000000 0.000000
												CHANNELS 3 Xrotation Yrotation Zrotation
												JOINT LeftHandMiddle3
												{
													OFFSET 3.342232 0.000000 0.000000
													CHANNELS 3 Xrotation Yrotation Zrotation
													JOINT LeftHandMiddle4
													{
														OFFSET 4.461754 0.000000 0.000000
														CHANNELS 3 Xrotation Yrotation Zrotation
														End Site
														{
															OFFSET 0.000000 0.000000 0.000000
														}
													}
												}
											}
										}
										JOINT LeftHandRing1
										{
											OFFSET 15.849892 -0.102921 -4.126150
											CHANNELS 3 Xrotation Yrotation Zrotation
											JOINT LeftHandRing2
											{
												OFFSET 3.527054 0.000000 0.000000
												CHANNELS 3 Xrotation Yrotation Zrotation
												JOINT LeftHandRing3
												{
													OFFSET 2.961098 0.000000 0.000000
													CHANNELS 3 Xrotation Yrotation Zrotation
													JOINT LeftHandRing4
													{
														OFFSET 4.927200 0.000000 0.000000
														CHANNELS 3 Xrotation Yrotation Zrotation
														End Site
														{
															OFFSET 0.000000 0.000000 0.000000
														}
													}
												}
											}
										}
										JOINT LeftHandPinky1
										{
											OFFSET 12.791824 -0.832031 -6.799156
											CHANNELS 3 Xrotation Yrotation Zrotation
											JOINT LeftHandPinky2
											{
												OFFSET 3.327133 0.000000 0.000000
												CHANNELS 3 Xrotation Yrotation Zrotation
												JOINT LeftHandPinky3
												{
													OFFSET 3.014900 0.000000 0.000000
													CHANNELS 3 Xrotation Yrotation Zrotation
													JOINT LeftHandPinky4
													{
														OFFSET 5.847786 0.000000 0.000000
														CHANNELS 3 Xrotation Yrotation Zrotation
														End Site
														{
															OFFSET 0.000000 0.000000 0.000000
														}
													}
												}
											}
										}
									}
								}
							}
						}
					}
					JOINT RightShoulder
					{
						OFFSET -6.292450 5.785301 -0.669000
						CHANNELS 3 Xrotation Yrotation Zrotation
						JOINT RightShoulder_split
						{
							OFFSET -6.292450 5.785301 -0.669000
							CHANNELS 3 Xrotation Yrotation Zrotation
							JOINT RightArm
							{
								OFFSET -13.907140 -6.093903 1.965100
								CHANNELS 3 Xrotation Yrotation Zrotation
								JOINT RightForeArm
								{
									OFFSET -34.140198 0.000000 0.000000
									CHANNELS 3 Xrotation Yrotation Zrotation
									JOINT RightHand
									{
										OFFSET -40.960209 0.000000 0.000000
										CHANNELS 3 Xrotation Yrotation Zrotation
										JOINT RightHandThumb1
										{
											OFFSET -10.007050 -7.170456 9.573117
											CHANNELS 3 Xrotation Yrotation Zrotation
											JOINT RightHandThumb2
											{
												OFFSET -1.835007 -1.059448 1.059443
												CHANNELS 3 Xrotation Yrotation Zrotation
												JOINT RightHandThumb3
												{
													OFFSET -2.112267 -1.219513 1.219518
													CHANNELS 3 Xrotation Yrotation Zrotation
													JOINT RightHandThumb4
													{
														OFFSET -4.843834 -2.796585 2.796590
														CHANNELS 3 Xrotation Yrotation Zrotation
														End Site
														{
															OFFSET 0.000000 0.000000 0.000000
														}
													}
												}
											}
										}
										JOINT RightHandIndex1
										{
											OFFSET -18.389870 -0.922424 4.596786
											CHANNELS 3 Xrotation Yrotation Zrotation
											JOINT RightHandIndex2
											{
												OFFSET -4.711273 0.000000 0.000000
												CHANNELS 3 Xrotation Yrotation Zrotation
												JOINT RightHandIndex3
												{
													OFFSET -2.886131 0.000000 0.000000
													CHANNELS 3 Xrotation Yrotation Zrotation
													JOINT RightHandIndex4
													{
														OFFSET -6.145920 0.000000 0.000000
														CHANNELS 3 Xrotation Yrotation Zrotation
														End Site
														{
															OFFSET 0.000000 0.000000 0.000000
														}
													}
												}
											}
										}
										JOINT RightHandMiddle1
										{
											OFFSET -18.013008 0.000000 0.000000
											CHANNELS 3 Xrotation Yrotation Zrotation
											JOINT RightHandMiddle2
											{
												OFFSET -4.946693 0.000000 0.000000
												CHANNELS 3 Xrotation Yrotation Zrotation
												JOINT RightHandMiddle3
												{
													OFFSET -3.342232 0.000000 0.000000
													CHANNELS 3 Xrotation Yrotation Zrotation
													JOINT RightHandMiddle4
													{
														OFFSET -4.461754 0.000000 0.000000
														CHANNELS 3 Xrotation Yrotation Zrotation
														End Site
														{
															OFFSET 0.000000 0.000000 0.000000
														}
													}
												}
											}
										}
										JOINT RightHandRing1
										{
											OFFSET -15.849876 -0.102936 -4.126237
											CHANNELS 3 Xrotation Yrotation Zrotation
											JOINT RightHandRing2
											{
												OFFSET -3.527054 0.000000 0.000000
												CHANNELS 3 Xrotation Yrotation Zrotation
												JOINT RightHandRing3
												{
													OFFSET -2.961098 0.000000 0.000000
													CHANNELS 3 Xrotation Yrotation Zrotation
													JOINT RightHandRing4
													{
														OFFSET -4.927200 0.000000 0.000000
														CHANNELS 3 Xrotation Yrotation Zrotation
														End Site
														{
															OFFSET 0.000000 0.000000 0.000000
														}
													}
												}
											}
										}
										JOINT RightHandPinky1
										{
											OFFSET -12.791786 -0.832077 -6.799222
											CHANNELS 3 Xrotation Yrotation Zrotation
											JOINT RightHandPinky2
											{
												OFFSET -3.327133 0.000000 0.000000
												CHANNELS 3 Xrotation Yrotation Zrotation
												JOINT RightHandPinky3
												{
													OFFSET -3.014900 0.000000 0.000000
													CHANNELS 3 Xrotation Yrotation Zrotation
													JOINT RightHandPinky4
													{
														OFFSET -5.847786 0.000000 0.000000
														CHANNELS 3 Xrotation Yrotation Zrotation
														End Site
														{
															OFFSET 0.000000 0.000000 0.000000
														}
													}
												}
											}
										}
									}
								}
							}
						}
					}
				}
			}
		}
	}
	JOINT LeftUpLeg
	{
		OFFSET 13.026900 -6.336304 -1.092800
		CHANNELS 3 Xrotation Yrotation Zrotation
		JOINT LeftLeg
		{
			OFFSET 0.524474 -46.096886 9.782700
			CHANNELS 3 Xrotation Yrotation Zrotation
			JOINT LeftFoot
			{
				OFFSET -0.524474 -53.427422 -12.948200
				CHANNELS 3 Xrotation Yrotation Zrotation
				JOINT LeftToeBase
				{
					OFFSET 0.192200 -14.009700 16.364100
					CHANNELS 3 Xrotation Yrotation Zrotation
					JOINT LeftToe_End
					{
						OFFSET -1.784700 -0.561700 9.474800
						CHANNELS 3 Xrotation Yrotation Zrotation
						End Site
						{
							OFFSET 0.000000 0.000000 0.000000
						}
					}
				}
			}
		}
	}
	JOINT RightUpLeg
	{
		OFFSET -12.883000 -6.336304 -1.092800
		CHANNELS 3 Xrotation Yrotation Zrotation
		JOINT RightLeg
		{
			OFFSET -0.524587 -46.096825 9.782800
			CHANNELS 3 Xrotation Yrotation Zrotation
			JOINT RightFoot
			{
				OFFSET 0.524587 -53.427383 -12.948300
				CHANNELS 3 Xrotation Yrotation Zrotation
				JOINT RightToeBase
				{
					OFFSET -0.192200 -14.009700 16.364100
					CHANNELS 3 Xrotation Yrotation Zrotation
					JOINT RightToe_End
					{
						OFFSET 1.784700 -0.561700 9.474800
						CHANNELS 3 Xrotation Yrotation Zrotation
						End Site
						{
							OFFSET 0.000000 0.000000 0.000000
						}
					}
				}
			}
		}
	}
}
MOTION
Frames: 4
Frame Time: 0.016667
-3.922369 112.530861 -2.698504 1.785492 -44.873366 5.494418 6.700252 0.729706 -1.529620 -0.557033 1.560398 -1.610231 0.000000 0.000000 0.000000 -0.534578 1.560479 -1.609755 -19.005370 -1.508391 20.421620 -4.556860 11.720421 -16.000779 -0.000001 -0.000000 -0.000000 -8.631163 -5.317961 -15.297517 0.000000 0.000000 0.000000 0.075340 -2.626996 -31.066825 42.317492 -37.063342 15.465975 -23.800376 3.779279 5.091206 7.895965 12.754501 1.888095 -2.399861 10.098208 -6.912114 -0.568284 -1.710770 -0.126059 0.000001 -0.000001 0.000003 10.366018 -5.431322 -20.260059 0.012391 0.242543 -14.888679 0.039941 0.202405 -15.802001 -0.000000 -0.000002 0.000000 8.099320 -3.521109 -16.129439 0.036834 0.594718 -11.734530 0.066879 0.099144 -13.782858 -0.000000 0.000001 -0.000000 7.437973 -2.616130 -14.483968 -0.036254 0.187717 -10.043048 0.074416 0.705327 -11.823655 0.000000 0.000001 0.000001 6.501851 -1.624402 -10.619914 -0.001467 0.148129 -9.427971 0.020471 0.150246 -10.028563 0.000000 0.000002 -0.000000 -0.620557 15.164825 -23.726493 0.000000 0.000000 0.000000 -69.097035 11.570648 13.062500 113.321574 148.813757 -130.632504 -14.646410 20.622269 10.268473 0.299570 -0.474249 0.374522 -3.620655 -7.484587 8.065526 -7.732041 18.632377 10.285505 0.000001 -0.000000 -0.000001 10.001357 7.473626 21.241251 -0.008304 -0.266169 15.389792 0.024010 -0.209798 16.753269 -0.000001 0.000001 0.000000 6.820046 4.437964 24.757434 0.121754 -0.593773 18.466431 0.129271 -0.058502 20.393249 0.000000 0.000002 -0.000000 4.875291 1.715984 32.191931 -0.003219 -0.241531 22.203669 0.216437 -0.687003 23.470765 -0.000001 0.000006 0.000000 3.061661 -1.343054 39.368032 0.068279 -0.198061 27.160239 0.102732 -0.170600 27.969054 -0.000000 -0.000003 -0.000001 -22.561165 7.757087 10.412325 13.497011 -8.077532 4.056792 7.009611 -2.799323 -18.154498 -0.682244 1.033298 1.622977 -0.000000 -0.000001 0.000000 -11.051000 -6.234360 -17.601558 22.559131 -11.285089 -7.807905 -8.638115 -5.553262 22.718406 -3.009357 -0.947798 -1.024252 0.000000 -0.000001 -0.000000 
-3.265527 112.194214 -2.766715 1.872357 -45.822079 5.704434 6.836560 0.741047 -1.447717 -0.284723 1.586134 -1.496926 0.000000 0.000000 0.000000 -0.262263 1.586182 -1.496444 -19.292204 0.711463 20.367003 -3.643175 13.440625 -15.407659 -0.000001 -0.000000 -0.000000 -8.545907 -5.440088 -14.847633 0.000000 0.000000 0.000000 0.040955 -2.007567 -31.692190 42.522507 -37.721175 16.179328 -23.412167 3.306865 4.559605 7.803323 12.376360 1.963680 -2.337380 10.219266 -6.846315 -0.549666 -1.671638 -0.089627 -0.000001 0.000000 0.000001 10.515343 -5.092626 -20.325951 0.011407 0.243640 -15.207524 0.039233 0.204142 -16.203080 -0.000000 -0.000001 0.000000 8.128687 -3.265510 -16.334855 0.039440 0.596857 -12.096714 0.072111 0.102306 -14.362015 0.000000 -0.000001 -0.000000 7.412090 -2.391973 -14.908262 -0.036569 0.189997 -10.461737 0.079911 0.708831 -12.423737 0.000000 0.000000 -0.000001 6.330470 -1.420175 -11.092617 0.000943 0.151179 -10.093313 0.024306 0.153680 -10.743859 0.000000 0.000002 -0.000000 -1.211231 15.565842 -20.539012 0.000000 0.000000 0.000000 -65.286350 12.486783 13.348865 113.302306 142.450780 -129.003791 -15.346298 19.991274 10.507302 0.841603 -1.185488 0.646254 -3.543951 -7.625413 7.985608 -7.479427 18.180130 9.940024 -0.000000 0.000002 -0.000000 10.272578 7.143722 23.988118 -0.006354 -0.268619 17.205525 0.030095 -0.210445 18.918791 -0.000001 -0.000002 0.000000 6.758862 4.033176 27.064515 0.133522 -0.599028 20.307607 0.143192 -0.063035 22.448380 -0.000000 0.000003 -0.000000 4.642729 1.320729 34.431776 -0.002025 -0.250334 23.879677 0.235118 -0.687142 25.274949 0.000000 0.000000 -0.000002 2.590319 -1.663344 41.407421 0.074436 -0.202432 28.788868 0.111335 -0.174771 29.632803 0.000000 -0.000000 0.000003 -23.043409 7.842642 10.687856 14.397433 -7.364911 3.624485 6.400288 -2.681988 -17.872807 -0.494928 1.041947 1.287121 0.000000 0.000003 0.000000 -12.210707 -5.830279 -17.801491 23.377998 -10.489235 -8.241935 -8.559996 -5.429655 22.901720 -2.472747 -0.956154 -1.031976 0.000000 0.000000 -0.000000 
-2.617224 111.844933 -2.838000 1.971099 -46.764543 5.927503 6.994166 0.747006 -1.380228 0.030505 1.602068 -1.410631 0.000000 0.000000 0.000000 0.052970 1.602110 -1.410147 -19.678864 2.847927 20.261702 -2.884402 15.081102 -14.720874 -0.000002 0.000002 0.000001 -8.451882 -5.621938 -14.376199 0.000000 0.000000 0.000000 -0.075751 -1.533864 -32.297946 42.235383 -38.238589 16.524085 -22.717001 2.721498 4.212287 7.702766 11.981683 2.047347 -2.271931 10.346038 -6.777518 -0.530362 -1.630625 -0.051311 0.000000 -0.000000 -0.000002 10.666649 -4.778042 -20.352546 0.010611 0.244540 -15.498644 0.038647 0.205764 -16.591255 0.000000 0.000000 -0.000000 8.160066 -3.018664 -16.524652 0.041914 0.599019 -12.447958 0.077600 0.105441 -14.954462 0.000000 -0.000002 -0.000000 7.387562 -2.161928 -15.340870 -0.036755 0.192304 -10.886804 0.085614 0.712402 -13.047594 -0.000000 0.000001 -0.000001 6.154516 -1.190095 -11.592646 0.003680 0.154462 -10.790915 0.028502 0.157217 -11.497518 -0.000000 0.000001 0.000001 -1.838004 15.913868 -17.234360 0.000000 0.000000 0.000000 -61.208604 13.459272 13.486392 111.295535 139.193477 -126.470132 -13.055767 19.376685 10.856542 1.302482 -1.793411 0.752535 -3.461111 -7.778546 7.899740 -7.223432 17.713887 9.587567 0.000000 -0.000001 0.000003 10.560499 6.834442 26.258657 -0.005027 -0.270957 18.813681 0.035082 -0.210896 20.813994 0.000000 0.000003 -0.000000 6.734494 3.630413 28.949255 0.144538 -0.603039 21.917396 0.156287 -0.066282 24.248162 -0.000000 0.000003 -0.000001 4.449681 0.905838 36.260340 -0.000544 -0.257377 25.307384 0.251669 -0.686047 26.832690 0.000002 0.000001 -0.000000 2.154130 -2.026311 43.046731 0.080090 -0.205650 30.188183 0.119219 -0.177809 31.056860 -0.000000 -0.000004 -0.000003 -23.541707 7.919907 10.959270 15.315591 -6.661801 3.213426 5.810750 -2.574526 -17.614182 -0.321646 1.048716 0.978181 -0.000000 -0.000001 -0.000000 -13.372095 -5.397522 -17.989508 24.216468 -9.694414 -8.636753 -8.502126 -5.296363 23.054134 -2.157553 -0.960765 -1.044613 -0.000000 0.000001 0.000000 
-1.977817 111.458549 -2.898954 2.082827 -47.693196 6.147216 7.169573 0.754645 -1.307151 0.381790 1.616024 -1.339482 0.000000 0.000000 0.000000 0.404245 1.616077 -1.339004 -20.090177 4.892756 20.079759 -2.370505 16.634103 -14.025587 -0.000000 -0.000002 -0.000000 -8.350766 -5.895213 -13.889794 0.000000 0.000000 0.000000 -0.307281 -1.191921 -32.855549 41.504881 -38.584630 16.501867 -21.860760 2.062534 4.067430 7.595163 11.572949 2.139291 -2.203546 10.479058 -6.705547 -0.511600 -1.591995 -0.013284 0.000000 0.000000 0.000002 10.817050 -4.496415 -20.333350 0.009949 0.245461 -15.754665 0.038046 0.207047 -16.959747 -0.000000 -0.000000 0.000000 8.192546 -2.786668 -16.693604 0.044382 0.601064 -12.787661 0.083373 0.108705 -15.552612 0.000000 -0.000002 -0.000000 7.364245 -1.930040 -15.779286 -0.036709 0.194729 -11.318093 0.091601 0.716164 -13.690478 0.000000 0.000000 -0.000000 5.974175 -0.935456 -12.117714 0.006732 0.157895 -11.523804 0.033141 0.160494 -12.289077 0.000000 0.000001 -0.000001 -2.473715 16.306117 -13.905145 0.000000 0.000000 0.000000 -56.841271 14.356178 13.304798 109.584306 135.172258 -124.529320 -12.518407 18.763436 11.455878 1.709465 -2.341674 0.715102 -3.375393 -7.937550 7.810752 -6.962845 17.230501 9.226013 -0.000001 0.000003 -0.000001 10.848332 6.547866 27.989755 -0.004360 -0.273172 20.162274 0.038654 -0.211266 22.390207 -0.000000 0.000003 0.000000 6.739381 3.239572 30.352319 0.154407 -0.605499 23.251902 0.167922 -0.067502 25.754456 -0.000000 -0.000001 0.000001 4.297156 0.478137 37.613650 0.001110 -0.262426 26.447621 0.265722 -0.683851 28.102197 0.000001 0.000001 -0.000000 1.767431 -2.429476 44.218365 0.085095 -0.207497 31.316370 0.125900 -0.179557 32.197976 -0.000001 -0.000001 0.000000 -24.235647 7.947011 11.264421 16.499336 -5.997451 2.823753 5.380961 -2.516213 -17.362138 -0.279847 1.051742 0.914548 -0.000000 0.000000 0.000000 -14.580463 -4.981264 -18.243128 25.156594 -8.857262 -8.864785 -8.501838 -5.143086 23.122641 -2.001204 -0.963158 -1.060743 0.000000 0.000001 -0.000000 
